<svg width="21" height="182" viewBox="0 0 21 182" fill="none" xmlns="http://www.w3.org/2000/svg">
<path d="M5.06 71.814C5.06 71.2633 5.13933 70.7827 5.298 70.372C5.44733 69.9613 5.64333 69.6207 5.886 69.35C6.11933 69.0793 6.38067 68.874 6.67 68.734C6.95933 68.594 7.23933 68.5193 7.51 68.51C7.58467 68.51 7.65 68.5333 7.706 68.58C7.762 68.6267 7.79 68.7013 7.79 68.804L7.79 69.084C7.79 69.1307 7.77133 69.1913 7.734 69.266C7.69667 69.3313 7.622 69.3733 7.51 69.392C7.04333 69.448 6.66067 69.6953 6.362 70.134C6.054 70.5633 5.9 71.1233 5.9 71.814C5.9 72.1593 5.93267 72.4767 5.998 72.766C6.06333 73.0553 6.166 73.3027 6.306 73.508C6.446 73.7133 6.62333 73.8767 6.838 73.998C7.04333 74.11 7.29067 74.166 7.58 74.166C7.86 74.166 8.098 74.1147 8.294 74.012C8.49 73.9 8.66733 73.7273 8.826 73.494C8.98467 73.2607 9.134 72.9667 9.274 72.612C9.414 72.2573 9.56333 71.828 9.722 71.324C9.89 70.8013 10.058 70.3487 10.226 69.966C10.3847 69.574 10.5667 69.252 10.772 69C10.9773 68.7387 11.2153 68.5473 11.486 68.426C11.7567 68.2953 12.0833 68.23 12.466 68.23C13.3153 68.23 13.9733 68.5427 14.44 69.168C14.9067 69.7933 15.14 70.652 15.14 71.744C15.14 72.3133 15.07 72.8173 14.93 73.256C14.7807 73.6947 14.5893 74.068 14.356 74.376C14.1227 74.6747 13.8567 74.908 13.558 75.076C13.25 75.2347 12.9373 75.3187 12.62 75.328C12.5453 75.328 12.48 75.3 12.424 75.244C12.368 75.188 12.34 75.118 12.34 75.034L12.34 74.754C12.34 74.6607 12.368 74.5907 12.424 74.544C12.48 74.4973 12.5453 74.4647 12.62 74.446C12.816 74.418 13.0167 74.348 13.222 74.236C13.418 74.124 13.5953 73.9607 13.754 73.746C13.9127 73.522 14.0433 73.2467 14.146 72.92C14.2487 72.5933 14.3 72.2013 14.3 71.744C14.3 70.8293 14.1367 70.162 13.81 69.742C13.474 69.322 13.026 69.112 12.466 69.112C12.186 69.112 11.9527 69.1727 11.766 69.294C11.57 69.4153 11.3973 69.602 11.248 69.854C11.0893 70.106 10.94 70.4233 10.8 70.806C10.66 71.1887 10.506 71.6413 10.338 72.164C10.1793 72.668 10.0207 73.102 9.862 73.466C9.694 73.8207 9.50733 74.1193 9.302 74.362C9.08733 74.5953 8.84467 74.768 8.574 74.88C8.294 74.992 7.96267 75.048 7.58 75.048C7.22533 75.048 6.894 74.978 6.586 74.838C6.278 74.6887 6.012 74.4787 5.788 74.208C5.564 73.9373 5.38667 73.6013 5.256 73.2C5.12533 72.7987 5.06 72.3367 5.06 71.814ZM10.87 65.8014C11.01 65.8108 11.1733 65.8154 11.36 65.8154C11.5467 65.8154 11.71 65.8108 11.85 65.8014C12.7273 65.7734 13.362 65.5541 13.754 65.1434C14.1367 64.7234 14.328 64.1961 14.328 63.5614C14.328 63.0668 14.2253 62.6514 14.02 62.3154C13.8053 61.9701 13.432 61.6994 12.9 61.5034C12.788 61.4568 12.7133 61.4148 12.676 61.3774C12.6293 61.3401 12.606 61.2701 12.606 61.1674L12.606 60.9714C12.606 60.8874 12.634 60.8128 12.69 60.7474C12.746 60.6821 12.8207 60.6541 12.914 60.6634C13.166 60.6728 13.4227 60.7381 13.684 60.8594C13.9453 60.9714 14.188 61.1488 14.412 61.3914C14.6267 61.6248 14.804 61.9234 14.944 62.2874C15.0747 62.6421 15.14 63.0668 15.14 63.5614C15.14 64.5508 14.8553 65.3068 14.286 65.8294C13.7167 66.3521 12.928 66.6274 11.92 66.6554C11.78 66.6648 11.5933 66.6694 11.36 66.6694C11.1267 66.6694 10.94 66.6648 10.8 66.6554C9.792 66.6274 9.00333 66.3521 8.434 65.8294C7.86467 65.3068 7.58 64.5508 7.58 63.5614C7.58 63.0668 7.65 62.6421 7.79 62.2874C7.92067 61.9234 8.098 61.6248 8.322 61.3914C8.53667 61.1488 8.77467 60.9714 9.036 60.8594C9.29733 60.7381 9.554 60.6728 9.806 60.6634C9.89933 60.6541 9.974 60.6821 10.03 60.7474C10.086 60.8128 10.114 60.8874 10.114 60.9714L10.114 61.1674C10.114 61.2701 10.0953 61.3401 10.058 61.3774C10.0113 61.4148 9.932 61.4568 9.82 61.5034C9.288 61.6994 8.91933 61.9701 8.714 62.3154C8.49933 62.6514 8.392 63.0668 8.392 63.5614C8.392 64.1961 8.588 64.7234 8.98 65.1434C9.36267 65.5541 9.99267 65.7734 10.87 65.8014ZM8.686 57.8896C8.042 57.5536 7.72 56.9189 7.72 55.9856L7.72 55.4676C7.72 55.2622 7.82267 55.1596 8.028 55.1596L8.224 55.1596C8.42933 55.1596 8.532 55.2622 8.532 55.4676L8.532 56.0696C8.532 56.6296 8.69533 57.0729 9.022 57.3996C9.34867 57.7262 9.792 57.8896 10.352 57.8896L14.692 57.8896C14.7853 57.8896 14.86 57.9222 14.916 57.9876C14.972 58.0436 15 58.1182 15 58.2116L15 58.4356C15 58.6409 14.8973 58.7436 14.692 58.7436L8.042 58.7436C7.94867 58.7436 7.874 58.7156 7.818 58.6596C7.75267 58.6036 7.72 58.5289 7.72 58.4356L7.72 58.2116C7.72 58.1182 7.75267 58.0436 7.818 57.9876C7.874 57.9222 7.94867 57.8896 8.042 57.8896L8.686 57.8896ZM7.58 51.1985C7.58 50.6945 7.664 50.2511 7.832 49.8685C7.99067 49.4858 8.21467 49.1685 8.504 48.9165C8.784 48.6551 9.12 48.4591 9.512 48.3285C9.904 48.1885 10.324 48.1091 10.772 48.0905C10.8467 48.0905 10.9353 48.0905 11.038 48.0905C11.1407 48.0811 11.248 48.0765 11.36 48.0765C11.472 48.0765 11.584 48.0811 11.696 48.0905C11.7987 48.0905 11.8827 48.0905 11.948 48.0905C12.396 48.1091 12.816 48.1885 13.208 48.3285C13.6 48.4591 13.9407 48.6551 14.23 48.9165C14.51 49.1685 14.734 49.4858 14.902 49.8685C15.0607 50.2511 15.14 50.6945 15.14 51.1985C15.14 51.7025 15.0607 52.1458 14.902 52.5285C14.734 52.9111 14.51 53.2331 14.23 53.4945C13.9407 53.7465 13.6 53.9425 13.208 54.0825C12.816 54.2225 12.396 54.2971 11.948 54.3065C11.8827 54.3065 11.7987 54.3111 11.696 54.3205C11.584 54.3205 11.472 54.3205 11.36 54.3205C11.248 54.3205 11.1407 54.3205 11.038 54.3205C10.9353 54.3111 10.8467 54.3065 10.772 54.3065C10.324 54.2971 9.904 54.2225 9.512 54.0825C9.12 53.9425 8.784 53.7465 8.504 53.4945C8.21467 53.2331 7.99067 52.9111 7.832 52.5285C7.664 52.1458 7.58 51.7025 7.58 51.1985ZM10.842 48.9445C10.0393 48.9725 9.43267 49.1918 9.022 49.6025C8.602 50.0131 8.392 50.5451 8.392 51.1985C8.392 51.8518 8.602 52.3838 9.022 52.7945C9.43267 53.2051 10.0393 53.4245 10.842 53.4525C10.982 53.4618 11.1547 53.4665 11.36 53.4665C11.5653 53.4665 11.738 53.4618 11.878 53.4525C12.6807 53.4245 13.292 53.2051 13.712 52.7945C14.1227 52.3838 14.328 51.8518 14.328 51.1985C14.328 50.5451 14.1227 50.0131 13.712 49.6025C13.292 49.1918 12.6807 48.9725 11.878 48.9445C11.738 48.9351 11.5653 48.9305 11.36 48.9305C11.1547 48.9305 10.982 48.9351 10.842 48.9445ZM14.692 45.2258C14.8973 45.2258 15 45.3285 15 45.5338L15 45.7718C15 45.9771 14.8973 46.0798 14.692 46.0798L5.368 46.0798C5.16266 46.0798 5.06 45.9771 5.06 45.7718L5.06 45.5338C5.06 45.3285 5.16266 45.2258 5.368 45.2258L14.692 45.2258ZM14.692 42.0113C14.8973 42.0113 15 42.1139 15 42.3193L15 42.5573C15 42.7626 14.8973 42.8653 14.692 42.8653L5.368 42.8653C5.16266 42.8653 5.06 42.7626 5.06 42.5573L5.06 42.3193C5.06 42.1139 5.16266 42.0113 5.368 42.0113L14.692 42.0113ZM5.2 32.5134C5.2 31.776 5.284 31.16 5.452 30.6654C5.61066 30.1707 5.85333 29.774 6.18 29.4754C6.49733 29.1767 6.894 28.962 7.37 28.8314C7.83666 28.7007 8.37333 28.6307 8.98 28.6214C9.4 28.612 9.77333 28.6074 10.1 28.6074C10.4173 28.6074 10.786 28.612 11.206 28.6214C11.85 28.64 12.41 28.7147 12.886 28.8454C13.362 28.9667 13.7587 29.1767 14.076 29.4754C14.384 29.7647 14.6173 30.152 14.776 30.6374C14.9253 31.1227 15 31.7247 15 32.4434L15 35.4954C15 35.7007 14.8973 35.8034 14.692 35.8034L5.522 35.8034C5.30733 35.8034 5.2 35.7007 5.2 35.4954L5.2 32.5134ZM9.05 29.5034C8.53666 29.5127 8.09333 29.5734 7.72 29.6854C7.33733 29.7974 7.02466 29.9747 6.782 30.2174C6.53 30.46 6.34333 30.7774 6.222 31.1694C6.10066 31.552 6.04 32.0234 6.04 32.5834L6.04 34.9214L14.16 34.9214L14.16 32.5134C14.16 31.9534 14.104 31.4867 13.992 31.1134C13.88 30.7307 13.7073 30.4227 13.474 30.1894C13.2313 29.956 12.9187 29.788 12.536 29.6854C12.1533 29.5734 11.6867 29.5127 11.136 29.5034C10.9307 29.5034 10.744 29.5034 10.576 29.5034C10.408 29.494 10.2493 29.4894 10.1 29.4894C9.94133 29.4894 9.78266 29.494 9.624 29.5034C9.456 29.5034 9.26466 29.5034 9.05 29.5034ZM7.58 23.6688C7.58 23.1648 7.664 22.7214 7.832 22.3388C7.99066 21.9561 8.21466 21.6388 8.504 21.3868C8.784 21.1254 9.12 20.9294 9.512 20.7988C9.904 20.6588 10.324 20.5794 10.772 20.5608C10.8467 20.5608 10.9353 20.5608 11.038 20.5608C11.1407 20.5514 11.248 20.5468 11.36 20.5468C11.472 20.5468 11.584 20.5514 11.696 20.5608C11.7987 20.5608 11.8827 20.5608 11.948 20.5608C12.396 20.5794 12.816 20.6588 13.208 20.7988C13.6 20.9294 13.9407 21.1254 14.23 21.3868C14.51 21.6388 14.734 21.9561 14.902 22.3388C15.0607 22.7214 15.14 23.1648 15.14 23.6688C15.14 24.1728 15.0607 24.6161 14.902 24.9988C14.734 25.3814 14.51 25.7034 14.23 25.9648C13.9407 26.2168 13.6 26.4128 13.208 26.5528C12.816 26.6928 12.396 26.7674 11.948 26.7768C11.8827 26.7768 11.7987 26.7814 11.696 26.7908C11.584 26.7908 11.472 26.7908 11.36 26.7908C11.248 26.7908 11.1407 26.7908 11.038 26.7908C10.9353 26.7814 10.8467 26.7768 10.772 26.7768C10.324 26.7674 9.904 26.6928 9.512 26.5528C9.12 26.4128 8.784 26.2168 8.504 25.9648C8.21466 25.7034 7.99066 25.3814 7.832 24.9988C7.664 24.6161 7.58 24.1728 7.58 23.6688ZM10.842 21.4148C10.0393 21.4428 9.43266 21.6621 9.022 22.0728C8.602 22.4834 8.392 23.0154 8.392 23.6688C8.392 24.3221 8.602 24.8541 9.022 25.2648C9.43266 25.6754 10.0393 25.8948 10.842 25.9228C10.982 25.9321 11.1547 25.9368 11.36 25.9368C11.5653 25.9368 11.738 25.9321 11.878 25.9228C12.6807 25.8948 13.292 25.6754 13.712 25.2648C14.1227 24.8541 14.328 24.3221 14.328 23.6688C14.328 23.0154 14.1227 22.4834 13.712 22.0728C13.292 21.6621 12.6807 21.4428 11.878 21.4148C11.738 21.4054 11.5653 21.4008 11.36 21.4008C11.1547 21.4008 10.982 21.4054 10.842 21.4148ZM13.754 12.0219L7.93 10.2999C7.89266 10.2905 7.85066 10.2625 7.804 10.2159C7.748 10.1599 7.72 10.0852 7.72 9.99186L7.72 9.72586C7.72 9.65119 7.748 9.58586 7.804 9.52986C7.86 9.47386 7.92533 9.44586 8 9.44586C8.04666 9.44586 8.098 9.45519 8.154 9.47386L14.65 11.4479C14.7713 11.4945 14.86 11.5505 14.916 11.6159C14.972 11.6719 15 11.7652 15 11.8959L15 12.1339C15 12.3859 14.8833 12.5445 14.65 12.6099L9.134 14.3739L14.65 16.1379C14.8833 16.2032 15 16.3619 15 16.6139L15 16.8519C15 16.9825 14.972 17.0805 14.916 17.1459C14.86 17.2019 14.7713 17.2532 14.65 17.2999L8.154 19.2739C8.098 19.2925 8.04666 19.3019 8 19.3019C7.92533 19.3019 7.86 19.2739 7.804 19.2179C7.748 19.1619 7.72 19.0965 7.72 19.0219L7.72 18.7559C7.72 18.6625 7.748 18.5925 7.804 18.5459C7.85066 18.4899 7.89266 18.4572 7.93 18.4479L13.754 16.7259L8 14.8919C7.944 14.8732 7.88333 14.8359 7.818 14.7799C7.75266 14.7239 7.72 14.6352 7.72 14.5139L7.72 14.2339C7.72 14.1125 7.75266 14.0239 7.818 13.9679C7.88333 13.9119 7.944 13.8745 8 13.8559L13.754 12.0219ZM14.692 1.604C14.8973 1.604 15 1.70667 15 1.912L15 2.15C15 2.35534 14.8973 2.458 14.692 2.458L10.786 2.458C10.0393 2.458 9.456 2.64 9.036 3.004C8.60666 3.368 8.392 3.9 8.392 4.6C8.392 5.272 8.602 5.80867 9.022 6.21C9.442 6.61134 10.03 6.812 10.786 6.812L14.692 6.812C14.8973 6.812 15 6.91467 15 7.12L15 7.358C15 7.56334 14.8973 7.666 14.692 7.666L8.028 7.666C7.82266 7.666 7.72 7.56334 7.72 7.358L7.72 7.12C7.72 6.91467 7.82266 6.812 8.028 6.812L8.686 6.812C8.35933 6.56 8.09333 6.25667 7.888 5.902C7.68266 5.54734 7.58 5.06667 7.58 4.46C7.58 3.984 7.65933 3.56867 7.818 3.214C7.97666 2.85934 8.196 2.56534 8.476 2.332C8.756 2.08934 9.08733 1.90734 9.47 1.786C9.85266 1.66467 10.268 1.604 10.716 1.604L14.692 1.604Z" fill="white"/>
<path d="M10.6465 181.354C10.8417 181.549 11.1583 181.549 11.3536 181.354L14.5355 178.172C14.7308 177.976 14.7308 177.66 14.5355 177.464C14.3403 177.269 14.0237 177.269 13.8284 177.464L11 180.293L8.17158 177.464C7.97631 177.269 7.65973 177.269 7.46447 177.464C7.26921 177.66 7.26921 177.976 7.46447 178.172L10.6465 181.354ZM10.5 101L10.5 181L11.5 181L11.5 101L10.5 101Z" fill="white"/>
</svg>
