<svg width="9" height="16" viewBox="0 0 9 16" fill="none" xmlns="http://www.w3.org/2000/svg">
<path d="M7.00001 14.9999C7.23366 15.0004 7.4601 14.919 7.64001 14.7699C7.74127 14.686 7.82497 14.5829 7.88632 14.4665C7.94767 14.3502 7.98547 14.2229 7.99755 14.0919C8.00962 13.9609 7.99574 13.8289 7.9567 13.7033C7.91765 13.5777 7.85421 13.461 7.77001 13.3599L3.29001 7.99994L7.61001 2.62994C7.69308 2.52765 7.75511 2.40996 7.79254 2.28362C7.82997 2.15728 7.84206 2.02479 7.82813 1.89376C7.81419 1.76273 7.77449 1.63575 7.71132 1.52011C7.64814 1.40447 7.56274 1.30246 7.46001 1.21994C7.35654 1.1289 7.23538 1.06024 7.10412 1.01825C6.97285 0.976258 6.83433 0.961855 6.69724 0.97594C6.56014 0.990024 6.42744 1.03229 6.30746 1.1001C6.18748 1.1679 6.0828 1.25977 6.00001 1.36994L1.17001 7.36994C1.02293 7.54887 0.942523 7.77332 0.942523 8.00494C0.942523 8.23657 1.02293 8.46101 1.17001 8.63994L6.17001 14.6399C6.27033 14.761 6.39776 14.8566 6.54197 14.9192C6.68618 14.9817 6.8431 15.0094 7.00001 14.9999Z" fill="#0575E6"/>
</svg>
