<svg width="20" height="17" viewBox="0 0 20 17" fill="none" xmlns="http://www.w3.org/2000/svg">
<path d="M19.3558 2.40848C18.631 2.72345 17.864 2.93096 17.0792 3.02445C17.904 2.54149 18.5242 1.77421 18.8236 0.866536C18.0438 1.32251 17.1921 1.64245 16.305 1.81264C15.9314 1.42112 15.4821 1.10967 14.9844 0.897192C14.4867 0.684718 13.9511 0.575667 13.4099 0.576667C11.219 0.576667 9.44595 2.32393 9.44595 4.47782C9.4444 4.77742 9.47873 5.07612 9.54821 5.36756C7.97716 5.29391 6.43877 4.89313 5.03148 4.19087C3.62419 3.48861 2.37898 2.50033 1.37552 1.28926C1.02348 1.88274 0.8373 2.55987 0.836442 3.2499C0.836442 4.60262 1.54219 5.79834 2.60786 6.49885C1.97648 6.48387 1.35804 6.31676 0.805039 6.01171V6.06002C0.805039 7.95222 2.17386 9.52637 3.98555 9.88468C3.64486 9.9755 3.29379 10.0215 2.94121 10.0216C2.69103 10.022 2.44142 9.99773 2.19601 9.9491C2.69965 11.4991 4.16551 12.6264 5.9019 12.6586C4.49096 13.7459 2.75868 14.3337 0.97735 14.3293C0.661159 14.3289 0.345261 14.3101 0.03125 14.273C1.84341 15.4301 3.94989 16.0422 6.09998 16.0363C13.4015 16.0363 17.3904 10.09 17.3904 4.93275C17.3904 4.76366 17.3859 4.59457 17.3779 4.42951C18.1521 3.87878 18.8219 3.19439 19.3558 2.40848Z" fill="white"/>
</svg>
