<svg width="21" height="17" viewBox="0 0 21 17" fill="none" xmlns="http://www.w3.org/2000/svg">
<path d="M20.5741 3.99027C20.5741 2.17859 19.2415 0.721192 17.5949 0.721192C15.3645 0.61692 13.0898 0.57666 10.7652 0.57666H10.0406C7.7216 0.57666 5.44291 0.61692 3.21253 0.721595C1.56994 0.721595 0.237345 2.18704 0.237345 3.99872C0.136696 5.43156 0.0940207 6.8648 0.0964362 8.29804C0.0924103 9.73128 0.138038 11.1659 0.233319 12.6018C0.233319 14.4135 1.56591 15.8829 3.2085 15.8829C5.55161 15.9916 7.95511 16.04 10.3989 16.0359C12.8466 16.044 15.2434 15.993 17.5892 15.8829C19.2358 15.8829 20.5684 14.4135 20.5684 12.6018C20.6651 11.1645 20.7093 9.73129 20.7053 8.29402C20.7144 6.86078 20.6707 5.42619 20.5741 3.99027ZM8.43017 12.2475V4.3365L14.2678 8.28999L8.43017 12.2475Z" fill="black"/>
</svg>
